<?xml version="1.0" encoding="utf-8" ?>
<svg baseProfile="tiny" height="600" version="1.2" width="800" xmlns="http://www.w3.org/2000/svg" xmlns:ev="http://www.w3.org/2001/xml-events" xmlns:xlink="http://www.w3.org/1999/xlink"><defs /><g id="background"><rect fill="#F5F5F5" height="600" width="800" x="0" y="0" /></g><g id="water" /><g id="landuse"><polygon fill="#F0F0F0" opacity="0.8" points="543.5774,204.8129 573.6651,221.1493 586.905,228.3459 540.0768,302.6797 496.7491,279.1467 543.5774,204.8129" stroke="#D0D0D0" stroke-width="1" /><polygon fill="#90EE90" opacity="0.7" points="37.0352,186.7001 34.7266,194.9898 155.1207,243.6651 159.7273,235.6335 106.4455,177.0591 37.0352,186.7001" stroke="#7BE37B" stroke-width="1" /><polygon fill="#90EE90" opacity="0.7" points="286.038,-133.6673 433.3199,-244.8949 473.8235,-276.8997 491.2727,-283.3371 523.6477,-294.2534 514.1446,-314.264 554.6482,-367.0386 559.7702,-373.8708 586.3145,-360.4646 640.0687,-340.8943 715.1701,-362.7572 749.4564,-374.554 777.5469,-376.2393 807.8065,-433.6901 839.6338,-420.5876 888.4486,-417.3081 923.8839,-420.375 958.2239,-429.5453 975.7913,-437.4402 989.6862,-449.4041 1270.4948,-569.5589 1402.2174,-351.7498 1363.0453,-328.4445 1410.0776,-247.2785 1065.3566,-58.8628 987.0124,-19.4944 965.3969,2.2015 805.0683,89.5164 751.3892,120.6863 723.492,136.8861 651.612,182.6463 641.1962,146.5422 635.5051,145.3427 634.2487,144.5684 634.3883,142.5188 651.1288,115.175 604.2683,89.0154 603.3449,76.0799 538.2943,74.258 507.1649,51.2715 472.8356,45.7147 423.2584,13.2999 438.3238,-6.2856 411.0708,-20.7546 409.793,-29.9856 397.2618,-40.416 394.8673,-42.3442 337.5587,-85.736 344.9679,-95.1036 286.038,-133.6673" stroke="#7BE37B" stroke-width="1" /><polygon fill="#90EE90" opacity="0.7" points="134.4823,181.1281 132.281,184.7415 149.1933,205.3139 161.6494,187.7325 161.2628,182.0542 134.4823,181.1281" stroke="#7BE37B" stroke-width="1" /><polygon fill="#90EE90" opacity="0.7" points="177.7778,165.1105 177.9496,166.9931 107.9273,164.6398 91.3479,146.1019 92.8727,144.8417 137.0165,157.0941 177.7778,165.1105" stroke="#7BE37B" stroke-width="1" /></g><g id="buildings"><polygon fill="#E4E0D8" opacity="0.9" points="355.5233,76.8086 326.2839,111.6526 328.7751,113.6567 322.998,122.5993 329.9133,125.9698 332.0609,124.072 358.4763,136.5065 390.4432,138.0855 389.8741,145.5553 392.3653,145.8134 391.8606,159.5536 345.6659,158.916 315.8573,142.9287 319.9377,137.8729 312.797,136.0814 297.8282,156.0768 279.6918,146.1778 313.3553,89.9719 338.8688,61.3376 355.5233,76.8086" stroke="#D4D0C8" stroke-width="1" /><polygon fill="#E4E0D8" opacity="0.9" points="175.5121,211.4628 179.2059,208.6541 174.9752,203.6742 171.6464,206.1793 166.3418,199.5445 160.0709,204.1904 167.0076,212.5408 165.762,213.5277 169.7887,218.4468 175.4906,214.3172 174.0195,212.5864 175.5121,211.4628" stroke="#D4D0C8" stroke-width="1" /><polygon fill="#E4E0D8" opacity="0.9" points="321.5484,208.5022 327.0463,198.7247 326.3161,198.4362 332.0179,188.3094 326.3698,185.7284 320.9686,194.8987 325.1027,196.9179 324.4155,198.2844 322.9658,197.753 321.0223,201.1083 320.1954,200.8502 317.1781,206.4374 321.5484,208.5022" stroke="#D4D0C8" stroke-width="1" /><polygon fill="#E4E0D8" opacity="0.9" points="318.0586,214.7726 321.6451,216.4731 326.2946,208.3352 327.2073,208.6692 329.8811,204.1448 338.3426,189.1141 333.8004,186.8823 332.7374,188.6586 333.4568,188.9623 330.5468,194.0788 329.8703,193.7448 327.0463,198.7247 321.5484,208.5022 318.0586,214.7726" stroke="#D4D0C8" stroke-width="1" /><polygon fill="#E4E0D8" opacity="0.9" points="426.9952,344.4622 433.3306,333.9103 434.2326,332.3616 439.4083,323.5254 443.0163,317.4372 444.4659,314.9928 434.0823,309.5726 432.6649,311.9866 429.0784,317.9382 425.4597,324.0112 429.0892,325.9091 426.3617,330.3575 418.5767,343.0198 423.6235,345.4946 426.9952,344.4622" stroke="#D4D0C8" stroke-width="1" /><polygon fill="#E4E0D8" opacity="0.9" points="477.4637,337.0531 489.1144,344.2496 497.737,332.0732 499.5195,333.0145 502.3543,329.1581 500.7543,328.2168 510.8051,314.1577 512.5124,315.1446 514.7459,312.0626 513.0601,310.9239 521.9081,298.292 510.0319,291.1562 498.4027,307.2649 488.5775,321.2784 477.4637,337.0531" stroke="#D4D0C8" stroke-width="1" /><polygon fill="#E4E0D8" opacity="0.9" points="187.4312,229.6971 199.2537,235.9675 218.2599,204.6003 218.8398,201.1083 217.5297,198.9069 215.3607,197.6163 211.9782,198.0414 209.9058,199.7419 207.8011,203.0213 204.7408,201.412 195.6994,216.1846 189.0526,227.1161 187.4312,229.6971" stroke="#D4D0C8" stroke-width="1" /><polygon fill="#E4E0D8" opacity="0.9" points="473.147,360.495 495.074,373.9771 510.9125,383.451 504.4375,392.4391 512.6198,397.3886 518.9337,388.3853 522.8101,390.7386 530.3804,379.7465 516.464,371.3657 517.6022,369.4679 514.0802,367.403 512.9527,369.0276 497.6403,360.0243 498.7893,358.3998 495.0417,356.1831 493.7961,357.7469 480.7388,349.9582 473.147,360.495" stroke="#D4D0C8" stroke-width="1" /><polygon fill="#E4E0D8" opacity="0.9" points="549.7409,320.1549 559.1045,307.1738 560.7688,308.2517 563.2815,304.7446 561.6708,303.6666 571.6034,289.5468 573.3,290.4426 575.351,287.6793 573.7725,286.6469 583.5011,272.679 585.1118,273.6051 587.3024,270.4168 585.8635,269.5058 595.6458,255.2949 597.1705,256.2514 599.7369,252.6532 598.1155,251.6056 606.9743,239.2318 595.3451,231.9593 573.6651,262.3548 558.7071,283.3979 537.9936,312.8369 549.7409,320.1549" stroke="#D4D0C8" stroke-width="1" /><polygon fill="#E4E0D8" opacity="0.9" points="613.3419,355.3329 616.4345,351.0058 614.1043,349.5787 616.9499,345.5401 622.7913,336.9923 621.5565,336.2636 624.4128,332.3768 627.9992,334.4265 632.8421,327.5791 630.7052,326.1823 633.1857,322.7359 630.0287,320.7925 632.1763,317.7408 621.1269,310.7569 618.9042,313.8085 616.1231,312.0777 613.46,315.6001 610.8292,313.9907 603.1838,324.8007 605.9113,326.4101 596.7196,339.2545 594.0243,337.6452 586.2393,348.3033 588.9882,349.852 586.5507,353.3895 589.5359,355.1051 587.4742,357.9898 598.9423,364.9434 601.0899,362.1043 604.0643,363.8958 606.5985,360.4342 608.7675,361.6944 613.3419,355.3329" stroke="#D4D0C8" stroke-width="1" /><polygon fill="#E4E0D8" opacity="0.9" points="571.9471,389.8732 572.0437,389.7062 565.4184,385.4551 563.9043,387.444 560.0279,385.1818 558.3421,387.5807 554.863,385.5917 547.0565,396.5839 550.4389,398.6184 548.7101,401.245 552.2322,403.4768 550.557,406.0578 562.0681,413.057 563.7218,410.7796 573.0316,416.6401 577.155,419.13 575.5443,421.4682 587.2594,428.5432 588.9023,426.281 592.6606,428.437 594.8511,425.4308 598.2121,427.4805 605.7287,416.7312 602.3462,414.6208 604.0751,412.1005 600.4564,409.8383 601.7664,407.8342 594.0351,403.2946 591.5331,406.984 587.3024,404.494 588.3869,402.8543 574.6101,394.4584 573.6329,395.9918 569.7028,393.5474 571.9471,389.8732" stroke="#D4D0C8" stroke-width="1" /><polygon fill="#E4E0D8" opacity="0.9" points="192.4781,194.7165 202.153,199.7571 207.5756,191.0271 198.1047,185.9561 192.4781,194.7165" stroke="#D4D0C8" stroke-width="1" /><polygon fill="#E4E0D8" opacity="0.9" points="176.8973,221.0279 189.0526,227.1161 195.6994,216.1846 183.9306,210.0812 176.8973,221.0279" stroke="#D4D0C8" stroke-width="1" /><polygon fill="#E4E0D8" opacity="0.9" points="175.5121,211.4628 174.0195,212.5864 175.4906,214.3172 176.8436,213.3607 175.5121,211.4628" stroke="#D4D0C8" stroke-width="1" /><polygon fill="#E4E0D8" opacity="0.9" points="240.96,300.6149 233.3253,312.2751 233.3145,312.2751 232.2837,311.6982 230.1361,315.0383 218.2921,308.3884 228.1388,293.4943 240.96,300.6149" stroke="#D4D0C8" stroke-width="1" /><polygon fill="#E4E0D8" opacity="0.9" points="293.329,192.4846 292.2445,194.7013 294.1559,195.5515 295.337,193.4563 293.329,192.4846" stroke="#D4D0C8" stroke-width="1" /><polygon fill="#E4E0D8" opacity="0.9" points="211.3232,229.1961 219.8062,233.7509 227.0865,221.9084 218.6894,217.3233 211.3232,229.1961" stroke="#D4D0C8" stroke-width="1" /><polygon fill="#E4E0D8" opacity="0.9" points="384.8058,383.2536 393.8686,388.8408 400.5047,379.6402 391.3774,374.1289 384.8058,383.2536" stroke="#D4D0C8" stroke-width="1" /><polygon fill="#E4E0D8" opacity="0.9" points="211.8064,147.9541 220.4397,153.4502 228.3214,142.7313 219.8599,137.0682 211.8064,147.9541" stroke="#D4D0C8" stroke-width="1" /><polygon fill="#E4E0D8" opacity="0.9" points="498.8,432.2326 488.7708,426.1899 481.5871,436.3623 491.5304,442.3594 498.8,432.2326" stroke="#D4D0C8" stroke-width="1" /><polygon fill="#E4E0D8" opacity="0.9" points="449.341,330.3575 454.1301,332.7868 460.3366,322.6296 455.5046,320.1245 449.341,330.3575" stroke="#D4D0C8" stroke-width="1" /><polygon fill="#E4E0D8" opacity="0.9" points="245.6203,265.4672 254.8764,270.1131 260.6749,259.6675 251.5369,255.0065 247.2739,262.5522 245.6203,265.4672" stroke="#D4D0C8" stroke-width="1" /><polygon fill="#E4E0D8" opacity="0.9" points="264.5942,252.7139 277.4905,259.0147 283.8367,247.9617 271.0155,241.6458 268.417,245.9425 264.5942,252.7139" stroke="#D4D0C8" stroke-width="1" /><polygon fill="#E4E0D8" opacity="0.9" points="503.6858,445.5629 511.997,433.599 506.7354,430.35 500.8188,438.5637 499.8309,443.1944 503.6858,445.5629" stroke="#D4D0C8" stroke-width="1" /><polygon fill="#E4E0D8" opacity="0.9" points="207.1461,303.0137 214.9526,291.141 208.4347,287.3909 207.683,288.5751 200.8859,299.2181 207.1461,303.0137" stroke="#D4D0C8" stroke-width="1" /><polygon fill="#E4E0D8" opacity="0.9" points="200.4456,299.9165 200.8859,299.2181 207.683,288.5751 196.086,281.8341 188.6446,292.9781 200.4456,299.9165" stroke="#D4D0C8" stroke-width="1" /><polygon fill="#E4E0D8" opacity="0.9" points="438.5815,348.3641 447.4081,352.9188 454.1408,341.8204 445.282,337.129 444.7666,337.964 438.5815,348.3641" stroke="#D4D0C8" stroke-width="1" /><polygon fill="#E4E0D8" opacity="0.9" points="264.6909,198.1477 275.1497,203.5072 281.0341,193.76 270.1672,188.355 269.0827,190.2376 264.6909,198.1477" stroke="#D4D0C8" stroke-width="1" /><polygon fill="#E4E0D8" opacity="0.9" points="204.7408,201.412 207.8011,203.0213 209.9058,199.7419 211.9782,198.0414 208.0052,195.9614 204.7408,201.412" stroke="#D4D0C8" stroke-width="1" /><polygon fill="#E4E0D8" opacity="0.9" points="440.9546,335.884 444.7666,337.964 445.282,337.129 448.1705,332.3009 444.4444,330.3272 440.9546,335.884" stroke="#D4D0C8" stroke-width="1" /><polygon fill="#E4E0D8" opacity="0.9" points="426.9952,344.4622 433.685,347.8631 440.9546,335.884 434.2326,332.3616 433.3306,333.9103 426.9952,344.4622" stroke="#D4D0C8" stroke-width="1" /><polygon fill="#E4E0D8" opacity="0.9" points="184.6286,291.5509 191.0392,281.8189 182.5669,276.8997 176.0275,286.6317 175.0611,287.9982 183.7051,292.9629 184.6286,291.5509" stroke="#D4D0C8" stroke-width="1" /><polygon fill="#E4E0D8" opacity="0.9" points="274.6342,277.0667 281.9575,280.4828 285.0501,274.8197 289.1305,267.3802 289.2593,267.1677 282.2152,263.8427 274.6342,277.0667" stroke="#D4D0C8" stroke-width="1" /><polygon fill="#E4E0D8" opacity="0.9" points="218.1847,258.0885 224.0799,260.8821 225.5725,258.5288 233.4756,262.203 239.156,252.5013 225.2611,245.9425 218.1847,258.0885" stroke="#D4D0C8" stroke-width="1" /><polygon fill="#E4E0D8" opacity="0.9" points="376.8812,357.337 374.755,360.3887 369.4827,367.9496 368.3552,369.5741 381.6918,377.7879 386.7386,370.4547 383.6353,368.4658 386.803,363.4252 376.8812,357.337" stroke="#D4D0C8" stroke-width="1" /><polygon fill="#E4E0D8" opacity="0.9" points="291.2029,206.4526 287.3695,213.1026 300.459,219.5096 307.3099,207.2876 301.9624,204.8584 300.3409,207.7887 292.6311,203.9475 291.2029,206.4526" stroke="#D4D0C8" stroke-width="1" /><polygon fill="#E4E0D8" opacity="0.9" points="245.1478,211.979 250.2161,203.2946 244.8793,200.668 245.878,198.7247 240.6808,196.0829 236.9118,202.4596 234.3132,206.5741 245.1478,211.979" stroke="#D4D0C8" stroke-width="1" /><polygon fill="#E4E0D8" opacity="0.9" points="184.2528,201.0324 187.3024,196.4625 184.0273,194.7468 189.3963,186.2446 183.8984,183.3751 175.5335,196.4169 178.9267,198.1174 184.2528,201.0324" stroke="#D4D0C8" stroke-width="1" /><polygon fill="#E4E0D8" opacity="0.9" points="281.7857,201.8371 291.2029,206.4526 292.6311,203.9475 296.6793,196.7813 294.1559,195.5515 292.2445,194.7013 293.329,192.4846 288.6258,190.1769 281.7857,201.8371" stroke="#D4D0C8" stroke-width="1" /><polygon fill="#E4E0D8" opacity="0.9" points="207.1461,303.0137 208.134,303.5299 209.1326,301.875 215.8439,305.61 223.3927,294.3293 216.2627,290.4122 215.5217,291.4902 214.9526,291.141 207.1461,303.0137" stroke="#D4D0C8" stroke-width="1" /><polygon fill="#E4E0D8" opacity="0.9" points="506.832,448.9486 518.0639,455.9478 523.4007,448.569 521.1243,447.1571 522.6813,445.0011 513.7151,439.414 506.832,448.9486" stroke="#D4D0C8" stroke-width="1" /><polygon fill="#E4E0D8" opacity="0.9" points="298.537,250.315 291.7398,247.1419 289.1842,251.5904 293.4901,253.6248 287.0581,260.6696 284.6635,259.6068 283.4072,261.702 290.462,265.0725 296.6578,253.9133 298.537,250.315" stroke="#D4D0C8" stroke-width="1" /><polygon fill="#E4E0D8" opacity="0.9" points="230.5441,190.7234 223.1564,202.8088 233.3253,208.229 234.3132,206.5741 236.9118,202.4596 240.6808,196.0829 241.5291,194.4128 236.0098,191.437 234.8501,193.0008 230.5441,190.7234" stroke="#D4D0C8" stroke-width="1" /><polygon fill="#E4E0D8" opacity="0.9" points="404.4992,402.5203 412.8533,407.1054 414.1634,405.0406 424.9765,410.977 423.5484,413.224 445.98,425.5523 450.3503,418.6897 453.1207,414.3323 450.0067,412.6167 456.3206,402.7025 438.356,392.8338 437.3144,394.4735 433.5669,392.4087 434.7051,390.6324 414.5929,379.5794 406.8616,391.6951 410.2225,393.5322 404.4992,402.5203" stroke="#D4D0C8" stroke-width="1" /><polygon fill="#E4E0D8" opacity="0.9" points="241.1425,216.2909 253.5341,223.3812 246.8981,233.3865 234.5065,226.2962 241.1425,216.2909" stroke="#D4D0C8" stroke-width="1" /><polygon fill="#E4E0D8" opacity="0.9" points="374.755,360.3887 371.1793,358.2327 372.3175,356.5778 365.3271,352.3723 357.9394,363.0456 364.9513,367.2512 365.9392,365.8089 369.4827,367.9496 374.755,360.3887" stroke="#D4D0C8" stroke-width="1" /><polygon fill="#E4E0D8" opacity="0.9" points="262.2641,321.749 269.072,311.1516 276.2771,315.4331 269.3726,325.985 262.2641,321.749" stroke="#D4D0C8" stroke-width="1" /><polygon fill="#E4E0D8" opacity="0.9" points="238.5117,311.7893 244.2351,302.7101 254.6079,308.3732 248.8953,317.4524 238.5117,311.7893" stroke="#D4D0C8" stroke-width="1" /><polygon fill="#E4E0D8" opacity="0.9" points="281.7857,280.7865 281.9575,280.4828 285.0501,274.8197 289.1305,267.3802 296.2176,270.7963 294.9827,273.0282 290.8808,280.4221 288.7976,284.1722 281.7857,280.7865" stroke="#D4D0C8" stroke-width="1" /><polygon fill="#E4E0D8" opacity="0.9" points="307.836,278.0232 314.9875,281.6063 308.6736,292.887 301.5221,289.2887 307.836,278.0232" stroke="#D4D0C8" stroke-width="1" /><polygon fill="#E4E0D8" opacity="0.9" points="338.4178,222.3487 343.8082,214.7575 347.5236,217.05 348.286,215.9721 355.9958,220.7242 348.0819,231.8834 340.3828,227.1464 342.1546,224.6413 338.4178,222.3487" stroke="#D4D0C8" stroke-width="1" /><polygon fill="#E4E0D8" opacity="0.9" points="361.3433,236.4078 365.1123,238.7307 363.3191,241.2359 370.6531,245.7603 378.159,235.1477 370.8142,230.6384 369.8478,232.0049 366.0895,229.6971 361.3433,236.4078" stroke="#D4D0C8" stroke-width="1" /><polygon fill="#E4E0D8" opacity="0.9" points="337.054,254.3688 328.571,250.2999 327.4436,252.3647 323.1162,250.2847 318.5847,258.4681 322.9014,260.5481 321.9887,262.1878 330.4502,266.2567 337.054,254.3688" stroke="#D4D0C8" stroke-width="1" /><polygon fill="#E4E0D8" opacity="0.9" points="307.836,278.0232 299.7718,274.1061 299.2242,275.0778 294.9827,273.0282 290.8808,280.4221 295.0793,282.4565 293.4579,285.3716 301.5221,289.2887 307.836,278.0232" stroke="#D4D0C8" stroke-width="1" /><polygon fill="#E4E0D8" opacity="0.9" points="315.6425,296.379 321.9457,285.0983 329.1079,288.7118 322.8155,299.9772 315.6425,296.379" stroke="#D4D0C8" stroke-width="1" /><polygon fill="#E4E0D8" opacity="0.9" points="323.1162,250.2847 324.4691,247.8403 316.3942,243.9687 314.4077,247.5366 310.2413,245.5325 306.2361,252.8202 310.3917,254.8091 309.6722,256.0996 317.7472,259.9863 318.5847,258.4681 323.1162,250.2847" stroke="#D4D0C8" stroke-width="1" /><polygon fill="#E4E0D8" opacity="0.9" points="343.1747,272.5271 344.0767,270.9785 348.6296,263.1747 349.6926,261.3831 357.6709,265.4369 356.3394,267.6991 362.2024,270.6749 356.1247,276.6113 352.2912,274.6527 351.153,276.5809 343.1747,272.5271" stroke="#D4D0C8" stroke-width="1" /><polygon fill="#E4E0D8" opacity="0.9" points="308.6736,292.887 314.9875,281.6063 321.9457,285.0983 315.6425,296.379 308.6736,292.887" stroke="#D4D0C8" stroke-width="1" /><polygon fill="#E4E0D8" opacity="0.9" points="386.4594,214.2413 393.7398,203.993 394.5451,202.8543 402.1261,207.5154 399.0121,211.9031 402.7167,214.1805 397.9598,220.9064 386.4594,214.2413" stroke="#D4D0C8" stroke-width="1" /><polygon fill="#E4E0D8" opacity="0.9" points="344.0767,270.9785 348.6296,263.1747 344.0874,260.9884 345.5048,258.4225 337.054,254.3688 330.4502,266.2567 338.9332,270.3257 339.7063,268.8833 344.0767,270.9785" stroke="#D4D0C8" stroke-width="1" /><polygon fill="#E4E0D8" opacity="0.9" points="393.7398,203.993 386.148,199.3168 383.0018,203.7653 375.6463,199.2561 372.4356,203.8108 379.7697,208.3352 378.6422,209.9294 386.2339,214.5905 386.4594,214.2413 393.7398,203.993" stroke="#D4D0C8" stroke-width="1" /><polygon fill="#E4E0D8" opacity="0.9" points="348.0819,231.8834 355.9958,220.7242 363.7164,225.4612 362.9111,226.5999 366.6586,228.8924 366.0895,229.6971 361.3433,236.4078 357.585,234.1001 355.8025,236.6355 348.0819,231.8834" stroke="#D4D0C8" stroke-width="1" /><polygon fill="#E4E0D8" opacity="0.9" points="370.6531,245.7603 378.159,235.1477 385.5145,239.6569 385.0957,240.2338 390.1855,243.3766 384.1078,249.2826 380.328,246.9597 377.9979,250.2695 370.6531,245.7603" stroke="#D4D0C8" stroke-width="1" /><polygon fill="#E4E0D8" opacity="0.9" points="247.2739,262.5522 243.6015,260.6847 244.3102,259.4853 240.4446,257.5419 246.0068,247.9314 253.4697,251.5752 251.5369,255.0065 247.2739,262.5522" stroke="#D4D0C8" stroke-width="1" /><polygon fill="#E4E0D8" opacity="0.9" points="404.6925,211.3869 412.7674,199.9848 420.3484,204.6459 417.9217,208.0619 423.0437,211.2047 416.9123,217.2474 413.0896,214.8941 412.2842,216.048 404.6925,211.3869" stroke="#D4D0C8" stroke-width="1" /><polygon fill="#E4E0D8" opacity="0.9" points="337.5587,223.5482 338.4178,222.3487 343.8082,214.7575 345.6337,212.1612 338.0634,207.485 337.5695,208.1986 333.0595,205.4202 328.8717,212.6623 332.7266,215.0307 329.967,218.9023 337.5587,223.5482" stroke="#D4D0C8" stroke-width="1" /></g><g id="road-casings"><polyline fill="none" opacity="0.8" points="-8.1072,184.7871 31.0327,201.4423 247.6605,286.4344" stroke="#E0E0E0" stroke-linecap="round" stroke-linejoin="round" stroke-width="3.5" /><polyline fill="none" opacity="1" points="503.4818,182.3123 551.8671,195.2023 566.1271,197.8896 605.675,204.327 636.4715,209.0184 643.0431,209.5195 660.7071,210.8404 735.6044,216.4427 776.6449,216.9589 818.9955,215.4103 898.2309,209.6409 917.366,207.0143" stroke="#E0E0E0" stroke-linecap="round" stroke-linejoin="round" stroke-width="6" /><polyline fill="none" opacity="0.8" points="633.5293,249.5255 640.4553,254.7028 673.292,280.7865 693.8122,297.1988 713.3983,312.852 725.1564,312.0777 729.7307,311.6678 761.7943,308.7679 858.4897,300.0531 862.6775,299.6736 870.7417,298.9448 911.0735,295.8779 921.0706,295.1188 925.4195,294.1623 929.4247,293.2817" stroke="#E0E0E0" stroke-linecap="round" stroke-linejoin="round" stroke-width="3.5" /><polyline fill="none" opacity="1" points="913.0493,183.8306 818.4264,196.2651 775.7751,198.6639 766.1325,198.8917 733.6394,199.6812 717.4787,199.1194 662.103,196.4928" stroke="#E0E0E0" stroke-linecap="round" stroke-linejoin="round" stroke-width="6" /><polyline fill="none" opacity="0.8" points="654.4683,220.0258 730.9119,227.3894 787.3614,228.4673 840.0741,227.6626 901.1409,221.8174 917.5915,216.6553 986.9587,202.5203 1069.9095,179.7768 1097.5598,169.3464 1102.7677,157.9139" stroke="#E0E0E0" stroke-linecap="round" stroke-linejoin="round" stroke-width="3.5" /><polyline fill="none" opacity="0.8" points="639.0164,195.0808 621.3739,173.6582 603.8388,155.6213 560.6937,155.1811 554.3475,154.2701 537.3386,151.8257 525.2691,150.0949 484.8514,141.4105 440.8794,122.8118 404.6066,103.5907 372.339,78.1447 342.6807,47.9314 334.7024,41.1448" stroke="#E0E0E0" stroke-linecap="round" stroke-linejoin="round" stroke-width="3.5" /><polyline fill="none" opacity="0.8" points="657.0347,157.3977 655.3488,163.8807 653.0509,168.6935 652.3744,173.6734 652.9543,177.7727 654.8656,178.6685 659.193,176.6188 699.396,149.7001 780.3925,103.0137 872.2987,49.6926 955.4321,4.3878 958.7823,1.5334" stroke="#E0E0E0" stroke-linecap="round" stroke-linejoin="round" stroke-width="3" /><polyline fill="none" opacity="1" points="662.103,196.4928 645.1156,195.4149 642.8928,195.1871 639.0164,195.0808 603.6778,191.9836 575.4476,188.5372 568.3284,187.778 503.4818,182.3123" stroke="#E0E0E0" stroke-linecap="round" stroke-linejoin="round" stroke-width="6" /><polyline fill="none" opacity="0.8" points="247.6605,286.4344 202.765,264.7385 171.4316,239.915 115.5942,178.8355 108.6575,171.0165" stroke="#E0E0E0" stroke-linecap="round" stroke-linejoin="round" stroke-width="3.5" /><polyline fill="none" opacity="0.8" points="247.6605,286.4344 324.3618,317.6346" stroke="#E0E0E0" stroke-linecap="round" stroke-linejoin="round" stroke-width="3.5" /><polyline fill="none" opacity="1" points="256.1649,166.6439 240.0795,165.3534 196.7625,162.9697 172.6665,159.918 139.7224,152.5848 70.0008,133.2422" stroke="#E0E0E0" stroke-linecap="round" stroke-linejoin="round" stroke-width="6" /><polyline fill="none" opacity="0.8" points="208.1984,512.0018 212.5044,505.7618 229.5563,466.3478 247.8967,436.8177 278.7147,392.9553 291.364,378.6229 306.9448,367.2816 334.0152,349.6242 355.2119,337.6907 368.2908,336.2636" stroke="#E0E0E0" stroke-linecap="round" stroke-linejoin="round" stroke-width="3" /><polyline fill="none" opacity="0.8" points="368.2908,336.2636 378.32,331.6936 399.6886,298.0035 414.5177,276.7023 427.5321,263.205 460.1434,233.5687 493.3666,197.4797 503.4818,182.3123" stroke="#E0E0E0" stroke-linecap="round" stroke-linejoin="round" stroke-width="3" /><polyline fill="none" opacity="1" points="108.6575,171.0165 131.873,170.7584 157.6548,171.2442 240.5949,175.0399 255.8321,176.2393" stroke="#E0E0E0" stroke-linecap="round" stroke-linejoin="round" stroke-width="6" /><polyline fill="none" opacity="1" points="357.2092,174.22 330.2784,169.3464 294.5961,168.481 277.2865,167.7978 256.1649,166.6439" stroke="#E0E0E0" stroke-linecap="round" stroke-linejoin="round" stroke-width="6" /><polyline fill="none" opacity="1" points="255.8321,176.2393 272.5511,177.1502 294.4028,177.5905 329.9885,177.9094 357.2092,174.22" stroke="#E0E0E0" stroke-linecap="round" stroke-linejoin="round" stroke-width="6" /><polyline fill="none" opacity="1" points="503.4818,182.3123 485.1413,180.1867 429.5294,176.968 357.2092,174.22" stroke="#E0E0E0" stroke-linecap="round" stroke-linejoin="round" stroke-width="6" /><polyline fill="none" opacity="0.8" points="485.1413,180.1867 479.0314,196.2347 402.5234,270.2953 389.6486,286.2218 365.2197,324.5123 355.3945,330.2665 348.1249,334.3202 323.0732,348.2882 311.5514,354.9837 287.0688,374.5085 260.8574,405.5265 244.4391,428.2699 223.994,462.5066 205.9972,502.0421 201.7557,508.1758" stroke="#E0E0E0" stroke-linecap="round" stroke-linejoin="round" stroke-width="3.5" /><polyline fill="none" opacity="0.8" points="240.5949,175.0399 250.796,170.1814 256.1649,166.6439" stroke="#E0E0E0" stroke-linecap="round" stroke-linejoin="round" stroke-width="3.5" /><polyline fill="none" opacity="0.8" points="662.103,196.4928 661.4695,203.3857 660.7071,210.8404 654.4683,220.0258 639.7895,241.4332 633.5293,249.5255 626.3241,258.8173 607.9085,285.2046 517.9244,413.2088 514.0479,418.7657" stroke="#E0E0E0" stroke-linecap="round" stroke-linejoin="round" stroke-width="3.5" /><polyline fill="none" opacity="0.8" points="726.0798,320.8533 725.1564,312.0777 715.3633,298.793 701.5543,288.3018 639.7895,241.4332" stroke="#E0E0E0" stroke-linecap="round" stroke-linejoin="round" stroke-width="3.5" /><polyline fill="none" opacity="0.8" points="551.8671,195.2023 575.0396,211.2958 578.4972,213.5125 624.1336,242.5112 629.0838,246.2006 633.5293,249.5255" stroke="#E0E0E0" stroke-linecap="round" stroke-linejoin="round" stroke-width="3.5" /><polyline fill="none" opacity="0.8" points="324.3618,317.6346 340.7586,284.1874 305.0442,269.4754" stroke="#E0E0E0" stroke-linecap="round" stroke-linejoin="round" stroke-width="3.5" /><polyline fill="none" opacity="0.8" points="357.2092,174.22 357.8642,189.3267 358.2615,191.9229 359.9581,203.0517 367.5069,214.0742 380.8542,223.6544 398.4,231.2609" stroke="#E0E0E0" stroke-linecap="round" stroke-linejoin="round" stroke-width="3.5" /><polyline fill="none" opacity="0.8" points="324.3618,317.6346 343.368,325.3777 355.3945,330.2665 368.2908,336.2636" stroke="#E0E0E0" stroke-linecap="round" stroke-linejoin="round" stroke-width="3.5" /><polyline fill="none" opacity="0.8" points="368.2908,336.2636 378.9321,341.6078 478.9241,395.1416 480.975,396.7357 487.3211,401.6701" stroke="#E0E0E0" stroke-linecap="round" stroke-linejoin="round" stroke-width="3.5" /><polyline fill="none" opacity="0.8" points="487.3211,401.6701 514.0479,418.7657" stroke="#E0E0E0" stroke-linecap="round" stroke-linejoin="round" stroke-width="3.5" /><polyline fill="none" opacity="0.8" points="514.0479,418.7657 576.4892,456.8284 596.8806,469.2477" stroke="#E0E0E0" stroke-linecap="round" stroke-linejoin="round" stroke-width="3.5" /><polyline fill="none" opacity="0.8" points="307.4709,444.9252 344.7746,387.2922 344.7746,382.206 343.0458,376.3304 346.2135,368.2988 357.2522,352.2812 368.2908,336.2636" stroke="#E0E0E0" stroke-linecap="round" stroke-linejoin="round" stroke-width="3.5" /><polyline fill="none" opacity="0.8" points="252.6751,151.4006 240.0795,165.3534" stroke="#E0E0E0" stroke-linecap="round" stroke-linejoin="round" stroke-width="3.5" /><polyline fill="none" opacity="0.8" points="277.2865,167.7978 273.0665,164.0173 268.9539,159.2348 266.8814,153.4199" stroke="#E0E0E0" stroke-linecap="round" stroke-linejoin="round" stroke-width="3.5" /><polyline fill="none" opacity="0.8" points="256.1649,166.6439 261.2225,162.5142 264.3687,158.8401 266.8814,153.4199 268.17,145.3124 268.5565,125.8939" stroke="#E0E0E0" stroke-linecap="round" stroke-linejoin="round" stroke-width="3.5" /><polyline fill="none" opacity="0.8" points="268.5565,125.8939 261.3621,134.0773 258.5917,138.2069 255.2629,143.1716 252.6751,151.4006 251.7946,157.4433 252.9543,161.4515 256.1649,166.6439" stroke="#E0E0E0" stroke-linecap="round" stroke-linejoin="round" stroke-width="3.5" /><polyline fill="none" opacity="0.8" points="256.1649,166.6439 272.5511,177.1502" stroke="#E0E0E0" stroke-linecap="round" stroke-linejoin="round" stroke-width="3.5" /><polyline fill="none" opacity="0.8" points="621.3739,173.6582 647.1343,163.5618 657.0347,157.3977 704.0777,128.1257" stroke="#E0E0E0" stroke-linecap="round" stroke-linejoin="round" stroke-width="3" /><polyline fill="none" opacity="0.8" points="139.7224,152.5848 131.873,170.7584" stroke="#E0E0E0" stroke-linecap="round" stroke-linejoin="round" stroke-width="3" /><polyline fill="none" opacity="0.8" points="607.9085,285.2046 620.6223,292.2189 647.4994,307.0675 653.9851,316.2833 620.1498,365.9455 628.0529,464.5411 617.8948,482.5325" stroke="#E0E0E0" stroke-linecap="round" stroke-linejoin="round" stroke-width="3.5" /><polyline fill="none" opacity="0.8" points="450.3503,418.6897 459.6065,423.7759 464.8681,420.1473 475.6705,404.4485 480.975,396.7357" stroke="#E0E0E0" stroke-linecap="round" stroke-linejoin="round" stroke-width="3.5" /><polyline fill="none" opacity="0.8" points="639.7895,241.4332 604.3328,216.9286 605.5462,211.7513" stroke="#E0E0E0" stroke-linecap="round" stroke-linejoin="round" stroke-width="3" /><polyline fill="none" opacity="0.8" points="575.0396,211.2958 579.0234,207.2725 605.5462,211.7513 654.4683,220.0258" stroke="#E0E0E0" stroke-linecap="round" stroke-linejoin="round" stroke-width="3" /><polyline fill="none" opacity="0.8" points="384.3655,445.2441 439.4513,475.6244 479.9442,413.2999 487.3211,401.6701" stroke="#E0E0E0" stroke-linecap="round" stroke-linejoin="round" stroke-width="3.5" /><polyline fill="none" opacity="0.8" points="568.017,230.0767 573.6651,221.1493 578.4972,213.5125" stroke="#E0E0E0" stroke-linecap="round" stroke-linejoin="round" stroke-width="3.5" /><polyline fill="none" opacity="0.8" points="568.017,230.0767 527.8355,293.6309 508.883,283.2916 549.0645,219.7525 568.017,230.0767" stroke="#E0E0E0" stroke-linecap="round" stroke-linejoin="round" stroke-width="3.5" /></g><g id="roads"><polyline fill="none" opacity="0.8" points="-8.1072,184.7871 31.0327,201.4423 247.6605,286.4344" stroke="#FFFFFF" stroke-linecap="round" stroke-linejoin="round" stroke-width="2.5" /><polyline fill="none" opacity="1" points="503.4818,182.3123 551.8671,195.2023 566.1271,197.8896 605.675,204.327 636.4715,209.0184 643.0431,209.5195 660.7071,210.8404 735.6044,216.4427 776.6449,216.9589 818.9955,215.4103 898.2309,209.6409 917.366,207.0143" stroke="#FAFAFA" stroke-linecap="round" stroke-linejoin="round" stroke-width="4" /><polyline fill="none" opacity="0.8" points="633.5293,249.5255 640.4553,254.7028 673.292,280.7865 693.8122,297.1988 713.3983,312.852 725.1564,312.0777 729.7307,311.6678 761.7943,308.7679 858.4897,300.0531 862.6775,299.6736 870.7417,298.9448 911.0735,295.8779 921.0706,295.1188 925.4195,294.1623 929.4247,293.2817" stroke="#FFFFFF" stroke-linecap="round" stroke-linejoin="round" stroke-width="2.5" /><polyline fill="none" opacity="1" points="913.0493,183.8306 818.4264,196.2651 775.7751,198.6639 766.1325,198.8917 733.6394,199.6812 717.4787,199.1194 662.103,196.4928" stroke="#FAFAFA" stroke-linecap="round" stroke-linejoin="round" stroke-width="4" /><polyline fill="none" opacity="0.8" points="654.4683,220.0258 730.9119,227.3894 787.3614,228.4673 840.0741,227.6626 901.1409,221.8174 917.5915,216.6553 986.9587,202.5203 1069.9095,179.7768 1097.5598,169.3464 1102.7677,157.9139" stroke="#FFFFFF" stroke-linecap="round" stroke-linejoin="round" stroke-width="2.5" /><polyline fill="none" opacity="0.8" points="639.0164,195.0808 621.3739,173.6582 603.8388,155.6213 560.6937,155.1811 554.3475,154.2701 537.3386,151.8257 525.2691,150.0949 484.8514,141.4105 440.8794,122.8118 404.6066,103.5907 372.339,78.1447 342.6807,47.9314 334.7024,41.1448" stroke="#FFFFFF" stroke-linecap="round" stroke-linejoin="round" stroke-width="2.5" /><polyline fill="none" opacity="0.8" points="657.0347,157.3977 655.3488,163.8807 653.0509,168.6935 652.3744,173.6734 652.9543,177.7727 654.8656,178.6685 659.193,176.6188 699.396,149.7001 780.3925,103.0137 872.2987,49.6926 955.4321,4.3878 958.7823,1.5334" stroke="#FFFFFF" stroke-linecap="round" stroke-linejoin="round" stroke-width="2" /><polyline fill="none" opacity="1" points="662.103,196.4928 645.1156,195.4149 642.8928,195.1871 639.0164,195.0808 603.6778,191.9836 575.4476,188.5372 568.3284,187.778 503.4818,182.3123" stroke="#FAFAFA" stroke-linecap="round" stroke-linejoin="round" stroke-width="4" /><polyline fill="none" opacity="0.8" points="247.6605,286.4344 202.765,264.7385 171.4316,239.915 115.5942,178.8355 108.6575,171.0165" stroke="#FFFFFF" stroke-linecap="round" stroke-linejoin="round" stroke-width="2.5" /><polyline fill="none" opacity="0.8" points="247.6605,286.4344 324.3618,317.6346" stroke="#FFFFFF" stroke-linecap="round" stroke-linejoin="round" stroke-width="2.5" /><polyline fill="none" opacity="1" points="256.1649,166.6439 240.0795,165.3534 196.7625,162.9697 172.6665,159.918 139.7224,152.5848 70.0008,133.2422" stroke="#FAFAFA" stroke-linecap="round" stroke-linejoin="round" stroke-width="4" /><polyline fill="none" opacity="0.8" points="208.1984,512.0018 212.5044,505.7618 229.5563,466.3478 247.8967,436.8177 278.7147,392.9553 291.364,378.6229 306.9448,367.2816 334.0152,349.6242 355.2119,337.6907 368.2908,336.2636" stroke="#FFFFFF" stroke-linecap="round" stroke-linejoin="round" stroke-width="2" /><polyline fill="none" opacity="0.8" points="368.2908,336.2636 378.32,331.6936 399.6886,298.0035 414.5177,276.7023 427.5321,263.205 460.1434,233.5687 493.3666,197.4797 503.4818,182.3123" stroke="#FFFFFF" stroke-linecap="round" stroke-linejoin="round" stroke-width="2" /><polyline fill="none" opacity="1" points="108.6575,171.0165 131.873,170.7584 157.6548,171.2442 240.5949,175.0399 255.8321,176.2393" stroke="#FAFAFA" stroke-linecap="round" stroke-linejoin="round" stroke-width="4" /><polyline fill="none" opacity="1" points="357.2092,174.22 330.2784,169.3464 294.5961,168.481 277.2865,167.7978 256.1649,166.6439" stroke="#FAFAFA" stroke-linecap="round" stroke-linejoin="round" stroke-width="4" /><polyline fill="none" opacity="1" points="255.8321,176.2393 272.5511,177.1502 294.4028,177.5905 329.9885,177.9094 357.2092,174.22" stroke="#FAFAFA" stroke-linecap="round" stroke-linejoin="round" stroke-width="4" /><polyline fill="none" opacity="1" points="503.4818,182.3123 485.1413,180.1867 429.5294,176.968 357.2092,174.22" stroke="#FAFAFA" stroke-linecap="round" stroke-linejoin="round" stroke-width="4" /><polyline fill="none" opacity="0.8" points="485.1413,180.1867 479.0314,196.2347 402.5234,270.2953 389.6486,286.2218 365.2197,324.5123 355.3945,330.2665 348.1249,334.3202 323.0732,348.2882 311.5514,354.9837 287.0688,374.5085 260.8574,405.5265 244.4391,428.2699 223.994,462.5066 205.9972,502.0421 201.7557,508.1758" stroke="#FFFFFF" stroke-linecap="round" stroke-linejoin="round" stroke-width="2.5" /><polyline fill="none" opacity="0.8" points="240.5949,175.0399 250.796,170.1814 256.1649,166.6439" stroke="#FFFFFF" stroke-linecap="round" stroke-linejoin="round" stroke-width="2.5" /><polyline fill="none" opacity="0.8" points="662.103,196.4928 661.4695,203.3857 660.7071,210.8404 654.4683,220.0258 639.7895,241.4332 633.5293,249.5255 626.3241,258.8173 607.9085,285.2046 517.9244,413.2088 514.0479,418.7657" stroke="#FFFFFF" stroke-linecap="round" stroke-linejoin="round" stroke-width="2.5" /><polyline fill="none" opacity="0.8" points="726.0798,320.8533 725.1564,312.0777 715.3633,298.793 701.5543,288.3018 639.7895,241.4332" stroke="#FFFFFF" stroke-linecap="round" stroke-linejoin="round" stroke-width="2.5" /><polyline fill="none" opacity="0.8" points="551.8671,195.2023 575.0396,211.2958 578.4972,213.5125 624.1336,242.5112 629.0838,246.2006 633.5293,249.5255" stroke="#FFFFFF" stroke-linecap="round" stroke-linejoin="round" stroke-width="2.5" /><polyline fill="none" opacity="0.8" points="324.3618,317.6346 340.7586,284.1874 305.0442,269.4754" stroke="#FFFFFF" stroke-linecap="round" stroke-linejoin="round" stroke-width="2.5" /><polyline fill="none" opacity="0.8" points="357.2092,174.22 357.8642,189.3267 358.2615,191.9229 359.9581,203.0517 367.5069,214.0742 380.8542,223.6544 398.4,231.2609" stroke="#FFFFFF" stroke-linecap="round" stroke-linejoin="round" stroke-width="2.5" /><polyline fill="none" opacity="0.8" points="324.3618,317.6346 343.368,325.3777 355.3945,330.2665 368.2908,336.2636" stroke="#FFFFFF" stroke-linecap="round" stroke-linejoin="round" stroke-width="2.5" /><polyline fill="none" opacity="0.8" points="368.2908,336.2636 378.9321,341.6078 478.9241,395.1416 480.975,396.7357 487.3211,401.6701" stroke="#FFFFFF" stroke-linecap="round" stroke-linejoin="round" stroke-width="2.5" /><polyline fill="none" opacity="0.8" points="487.3211,401.6701 514.0479,418.7657" stroke="#FFFFFF" stroke-linecap="round" stroke-linejoin="round" stroke-width="2.5" /><polyline fill="none" opacity="0.8" points="514.0479,418.7657 576.4892,456.8284 596.8806,469.2477" stroke="#FFFFFF" stroke-linecap="round" stroke-linejoin="round" stroke-width="2.5" /><polyline fill="none" opacity="0.8" points="307.4709,444.9252 344.7746,387.2922 344.7746,382.206 343.0458,376.3304 346.2135,368.2988 357.2522,352.2812 368.2908,336.2636" stroke="#FFFFFF" stroke-linecap="round" stroke-linejoin="round" stroke-width="2.5" /><polyline fill="none" opacity="0.8" points="252.6751,151.4006 240.0795,165.3534" stroke="#FFFFFF" stroke-linecap="round" stroke-linejoin="round" stroke-width="2.5" /><polyline fill="none" opacity="0.8" points="277.2865,167.7978 273.0665,164.0173 268.9539,159.2348 266.8814,153.4199" stroke="#FFFFFF" stroke-linecap="round" stroke-linejoin="round" stroke-width="2.5" /><polyline fill="none" opacity="0.8" points="256.1649,166.6439 261.2225,162.5142 264.3687,158.8401 266.8814,153.4199 268.17,145.3124 268.5565,125.8939" stroke="#FFFFFF" stroke-linecap="round" stroke-linejoin="round" stroke-width="2.5" /><polyline fill="none" opacity="0.8" points="268.5565,125.8939 261.3621,134.0773 258.5917,138.2069 255.2629,143.1716 252.6751,151.4006 251.7946,157.4433 252.9543,161.4515 256.1649,166.6439" stroke="#FFFFFF" stroke-linecap="round" stroke-linejoin="round" stroke-width="2.5" /><polyline fill="none" opacity="0.8" points="256.1649,166.6439 272.5511,177.1502" stroke="#FFFFFF" stroke-linecap="round" stroke-linejoin="round" stroke-width="2.5" /><polyline fill="none" opacity="0.8" points="621.3739,173.6582 647.1343,163.5618 657.0347,157.3977 704.0777,128.1257" stroke="#FFFFFF" stroke-linecap="round" stroke-linejoin="round" stroke-width="2" /><polyline fill="none" opacity="0.8" points="139.7224,152.5848 131.873,170.7584" stroke="#FFFFFF" stroke-linecap="round" stroke-linejoin="round" stroke-width="2" /><polyline fill="none" opacity="0.8" points="607.9085,285.2046 620.6223,292.2189 647.4994,307.0675 653.9851,316.2833 620.1498,365.9455 628.0529,464.5411 617.8948,482.5325" stroke="#FFFFFF" stroke-linecap="round" stroke-linejoin="round" stroke-width="2.5" /><polyline fill="none" opacity="0.8" points="450.3503,418.6897 459.6065,423.7759 464.8681,420.1473 475.6705,404.4485 480.975,396.7357" stroke="#FFFFFF" stroke-linecap="round" stroke-linejoin="round" stroke-width="2.5" /><polyline fill="none" opacity="0.8" points="639.7895,241.4332 604.3328,216.9286 605.5462,211.7513" stroke="#FFFFFF" stroke-linecap="round" stroke-linejoin="round" stroke-width="2" /><polyline fill="none" opacity="0.8" points="575.0396,211.2958 579.0234,207.2725 605.5462,211.7513 654.4683,220.0258" stroke="#FFFFFF" stroke-linecap="round" stroke-linejoin="round" stroke-width="2" /><polyline fill="none" opacity="0.8" points="384.3655,445.2441 439.4513,475.6244 479.9442,413.2999 487.3211,401.6701" stroke="#FFFFFF" stroke-linecap="round" stroke-linejoin="round" stroke-width="2.5" /><polyline fill="none" opacity="0.8" points="568.017,230.0767 573.6651,221.1493 578.4972,213.5125" stroke="#FFFFFF" stroke-linecap="round" stroke-linejoin="round" stroke-width="2.5" /><polyline fill="none" opacity="0.8" points="568.017,230.0767 527.8355,293.6309 508.883,283.2916 549.0645,219.7525 568.017,230.0767" stroke="#FFFFFF" stroke-linecap="round" stroke-linejoin="round" stroke-width="2.5" /></g><g id="boundary"><polygon fill="none" opacity="1" points="107.3797,186.0624 199.5436,294.1168 530.1764,448.1743 692.6203,177.4994 268.6639,151.8257 111.9863,156.1072 107.3797,186.0624" stroke="black" stroke-width="2" /></g><g id="labels"><text fill="#666666" font-family="Arial" font-size="12" font-weight="bold" text-anchor="middle" x="547.4251250525739" y="244.15789873237495">P</text><text fill="white" font-family="Arial" font-size="8" stroke="white" stroke-width="3" text-anchor="middle" transform="rotate(3.166574574190008, 464.8736821376085, 180.17637037949507)" x="464.8736821376085" y="180.17637037949507">Avenue Robert Schuman</text><text fill="#404040" font-family="Arial" font-size="8" text-anchor="middle" transform="rotate(3.166574574190008, 464.8736821376085, 180.17637037949507)" x="464.8736821376085" y="180.17637037949507">Avenue Robert Schuman</text><text fill="white" font-family="Arial" font-size="8" stroke="white" stroke-width="3" text-anchor="middle" transform="rotate(3.1497192681042065, 203.31633753253047, 163.33035789965797)" x="203.31633753253047" y="163.33035789965797">Avenue Charles de Gaulle</text><text fill="#404040" font-family="Arial" font-size="8" text-anchor="middle" transform="rotate(3.1497192681042065, 203.31633753253047, 163.33035789965797)" x="203.31633753253047" y="163.33035789965797">Avenue Charles de Gaulle</text><text fill="white" font-family="Arial" font-size="8" stroke="white" stroke-width="3" text-anchor="middle" transform="rotate(2.6202378509572326, 196.92539093404076, 173.0413773315215)" x="196.92539093404076" y="173.0413773315215">Rue de la Batterie</text><text fill="#404040" font-family="Arial" font-size="8" text-anchor="middle" transform="rotate(2.6202378509572326, 196.92539093404076, 173.0413773315215)" x="196.92539093404076" y="173.0413773315215">Rue de la Batterie</text><text fill="white" font-family="Arial" font-size="7" stroke="white" stroke-width="3" text-anchor="middle" transform="rotate(22.13527059661217, 271.989022084293, 296.33062583778207)" x="271.989022084293" y="296.33062583778207">Boulevard de Bezons</text><text fill="#404040" font-family="Arial" font-size="7" text-anchor="middle" transform="rotate(22.13527059661217, 271.989022084293, 296.33062583778207)" x="271.989022084293" y="296.33062583778207">Boulevard de Bezons</text><text fill="white" font-family="Arial" font-size="7" stroke="white" stroke-width="3" text-anchor="middle" transform="rotate(36.778539215687246, 639.0006857756234, 253.61546786863755)" x="639.0006857756234" y="253.61546786863755">Rue Hugo Pratt</text><text fill="#404040" font-family="Arial" font-size="7" text-anchor="middle" transform="rotate(36.778539215687246, 639.0006857756234, 253.61546786863755)" x="639.0006857756234" y="253.61546786863755">Rue Hugo Pratt</text><text fill="white" font-family="Arial" font-size="7" stroke="white" stroke-width="3" text-anchor="middle" transform="rotate(-46.04348051397079, 425.75818213131134, 265.04482679426434)" x="425.75818213131134" y="265.04482679426434">La Coulée Verte</text><text fill="#404040" font-family="Arial" font-size="7" text-anchor="middle" transform="rotate(-46.04348051397079, 425.75818213131134, 265.04482679426434)" x="425.75818213131134" y="265.04482679426434">La Coulée Verte</text><text fill="white" font-family="Arial" font-size="7" stroke="white" stroke-width="3" text-anchor="middle" transform="rotate(-54.89362856905608, 590.825240169681, 309.505878251303)" x="590.825240169681" y="309.505878251303">Rue Georges Bernanos</text><text fill="#404040" font-family="Arial" font-size="7" text-anchor="middle" transform="rotate(-54.89362856905608, 590.825240169681, 309.505878251303)" x="590.825240169681" y="309.505878251303">Rue Georges Bernanos</text><text fill="white" font-family="Arial" font-size="7" stroke="white" stroke-width="3" text-anchor="middle" transform="rotate(22.388295396751232, 330.20276039677077, 279.8390569214927)" x="330.20276039677077" y="279.8390569214927">Rue des Pruniers</text><text fill="#404040" font-family="Arial" font-size="7" text-anchor="middle" transform="rotate(22.388295396751232, 330.20276039677077, 279.8390569214927)" x="330.20276039677077" y="279.8390569214927">Rue des Pruniers</text><text fill="white" font-family="Arial" font-size="7" stroke="white" stroke-width="3" text-anchor="middle" transform="rotate(35.669411766328096, 368.3418519354154, 214.67353192367085)" x="368.3418519354154" y="214.67353192367085">Rue des Pommiers</text><text fill="#404040" font-family="Arial" font-size="7" text-anchor="middle" transform="rotate(35.669411766328096, 368.3418519354154, 214.67353192367085)" x="368.3418519354154" y="214.67353192367085">Rue des Pommiers</text><text fill="white" font-family="Arial" font-size="7" stroke="white" stroke-width="3" text-anchor="middle" transform="rotate(-55.42710609914114, 358.7757735116294, 350.07033245504977)" x="358.7757735116294" y="350.07033245504977">Rue des Poiriers</text><text fill="#404040" font-family="Arial" font-size="7" text-anchor="middle" transform="rotate(-55.42710609914114, 358.7757735116294, 350.07033245504977)" x="358.7757735116294" y="350.07033245504977">Rue des Poiriers</text><text fill="white" font-family="Arial" font-size="7" stroke="white" stroke-width="3" text-anchor="middle" transform="rotate(-50.97935575860561, 259.4092322082222, 162.6404698814079)" x="259.4092322082222" y="162.6404698814079">Rue de Picardie</text><text fill="#404040" font-family="Arial" font-size="7" text-anchor="middle" transform="rotate(-50.97935575860561, 259.4092322082222, 162.6404698814079)" x="259.4092322082222" y="162.6404698814079">Rue de Picardie</text></g></svg>